# xmcd CD database file
#
# Track frame offsets:
#	150
#	21773
#	43620
#	60603
#	80525
#	99855
#	120050
#	136425
#	158220
#	176223
#	194840
#	217540
#
# Disc length: 3198 seconds
#
# Revision: 0
# Processed by: cddbd v1.5.1PL0 Copyright (c) Steve Scherf et al.
# Submitted via: CDex 1.51
#
DISCID=980c7c0c
DTITLE=来生たかお - ＴＡＫＡＯ　ＫＩＳＵＧＩ　Ｂｅｓｔ＆Ｂｅｓｔ
DYEAR=1900
DGENRE=JPop
TTITLE0=夢の途中
TTITLE1=マイ・ラグジュアリー・ナイト
TTITLE2=浅い夢
TTITLE3=シルエット・ロマンス
TTITLE4=そして、昼下がり
TTITLE5=スローモーション
TTITLE6=あなただけＧｏｏｄ　Ｎｉｇｈｔ
TTITLE7=穏やかな構図
TTITLE8=セカンド・ラブ
TTITLE9=はぐれそうな天使
TTITLE10=美しい女
TTITLE11=Ｇｏｏｄｂｙｅ　Day
EXTD=
EXTT0=
EXTT1=
EXTT2=
EXTT3=
EXTT4=
EXTT5=
EXTT6=
EXTT7=
EXTT8=
EXTT9=
EXTT10=
EXTT11=
PLAYORDER=
